# xmcd CD database file
#
# Track frame offsets:
#	150
#	16444
#	33808
#	61573
#	79285
#	105031
#	126448
#	140186
#	164185
#	179565
#	192651
#	214321
#	229323
#
# Disc length: 3537 seconds
#
# Revision: 0
# Processed by: cddbd v1.4PL0 Copyright (c) Steve Scherf et al.
# Submitted via: CDex 1.50beta10
#
DISCID=bf0dcf0d
DTITLE=Klezmer Nova - Delicatessen
DYEAR=2003
DGENRE=Jazz
TTITLE0=Fresser Freylekh
TTITLE1=Prashinkleh
TTITLE2=Di Mashke
TTITLE3=Shmaltz Hering
TTITLE4=Tsibeles
TTITLE5=Latke
TTITLE6=Pickel Fleish Hora
TTITLE7=Tsimes Mazurka
TTITLE8=Varnitshkes
TTITLE9=Kreplekh Rhapsodie
TTITLE10=Mlinshkes
TTITLE11=Klops Dance
TTITLE12=Transes
EXTD=YEAR: 2003
EXTT0=
EXTT1=
EXTT2=
EXTT3=
EXTT4=
EXTT5=
EXTT6=
EXTT7=
EXTT8=
EXTT9=
EXTT10=
EXTT11=
EXTT12=
PLAYORDER=
